
<svg width="0" height="0" class="hidden">
  <symbol fill="none" xmlns="http://www.w3.org/2000/svg" viewBox="0 0 41 26" id="bottom">
    <path d="M4.72043 0L20.087 15.7529L35.4535 0L40.1739 4.87346L20.087 25.4655L0 4.87346L4.72043 0Z" fill="#AD776B"></path>
  </symbol>
  <symbol fill="none" xmlns="http://www.w3.org/2000/svg" viewBox="0 0 22 22" id="facebook">
    <path d="M22 11.0276C22 4.94035 17.072 0 11 0C4.928 0 0 4.94035 0 11.0276C0 16.3649 3.784 20.809 8.8 21.8346V14.3358H6.6V11.0276H8.8V8.27068C8.8 6.14236 10.527 4.41103 12.65 4.41103H15.4V7.7193H13.2C12.595 7.7193 12.1 8.21554 12.1 8.82205V11.0276H15.4V14.3358H12.1V22C17.655 21.4486 22 16.7509 22 11.0276Z" fill="white"></path>
  </symbol>
  <symbol fill="none" xmlns="http://www.w3.org/2000/svg" viewBox="0 0 20 20" id="instagram">
    <path d="M5.8 0H14.2C17.4 0 20 2.6 20 5.8V14.2C20 15.7383 19.3889 17.2135 18.3012 18.3012C17.2135 19.3889 15.7383 20 14.2 20H5.8C2.6 20 0 17.4 0 14.2V5.8C0 4.26174 0.61107 2.78649 1.69878 1.69878C2.78649 0.61107 4.26174 0 5.8 0ZM5.6 2C4.64522 2 3.72955 2.37928 3.05442 3.05442C2.37928 3.72955 2 4.64522 2 5.6V14.4C2 16.39 3.61 18 5.6 18H14.4C15.3548 18 16.2705 17.6207 16.9456 16.9456C17.6207 16.2705 18 15.3548 18 14.4V5.6C18 3.61 16.39 2 14.4 2H5.6ZM15.25 3.5C15.5815 3.5 15.8995 3.6317 16.1339 3.86612C16.3683 4.10054 16.5 4.41848 16.5 4.75C16.5 5.08152 16.3683 5.39946 16.1339 5.63388C15.8995 5.8683 15.5815 6 15.25 6C14.9185 6 14.6005 5.8683 14.3661 5.63388C14.1317 5.39946 14 5.08152 14 4.75C14 4.41848 14.1317 4.10054 14.3661 3.86612C14.6005 3.6317 14.9185 3.5 15.25 3.5ZM10 5C11.3261 5 12.5979 5.52678 13.5355 6.46447C14.4732 7.40215 15 8.67392 15 10C15 11.3261 14.4732 12.5979 13.5355 13.5355C12.5979 14.4732 11.3261 15 10 15C8.67392 15 7.40215 14.4732 6.46447 13.5355C5.52678 12.5979 5 11.3261 5 10C5 8.67392 5.52678 7.40215 6.46447 6.46447C7.40215 5.52678 8.67392 5 10 5ZM10 7C9.20435 7 8.44129 7.31607 7.87868 7.87868C7.31607 8.44129 7 9.20435 7 10C7 10.7956 7.31607 11.5587 7.87868 12.1213C8.44129 12.6839 9.20435 13 10 13C10.7956 13 11.5587 12.6839 12.1213 12.1213C12.6839 11.5587 13 10.7956 13 10C13 9.20435 12.6839 8.44129 12.1213 7.87868C11.5587 7.31607 10.7956 7 10 7Z" fill="white"></path>
  </symbol>
  <symbol fill="none" xmlns="http://www.w3.org/2000/svg" viewBox="0 0 18 18" id="telegram">
    <path fill-rule="evenodd" clip-rule="evenodd" d="M17.9821 2.22666C18.0212 1.9646 17.996 1.69575 17.9091 1.44812C17.8222 1.2005 17.6769 0.98316 17.4882 0.818751C17.2996 0.654343 17.0745 0.548881 16.8364 0.513355C16.5983 0.477828 16.356 0.513535 16.1347 0.616758L0.821211 7.74547C-0.246253 8.2425 -0.30088 9.94943 0.821211 10.4643C1.93245 10.9762 3.05973 11.4445 4.20091 11.8682C5.24689 12.2504 6.38778 12.6039 7.30211 12.7039C7.55196 13.0346 7.86629 13.3534 8.18689 13.6445C8.67674 14.09 9.26599 14.5484 9.87495 14.988C11.0947 15.8692 12.4478 16.7118 13.3594 17.2603C14.4493 17.9138 15.7541 17.1613 15.9493 15.8474L17.9821 2.22666ZM2.53793 9.09497L16.0818 2.79003L14.1851 15.5029C13.2905 14.9653 12.0018 14.1603 10.8538 13.3306C10.3246 12.955 9.81378 12.5488 9.32331 12.1138C9.19223 11.9954 9.06498 11.8719 8.94181 11.7435L12.489 7.8227C12.657 7.63705 12.7515 7.3852 12.7516 7.12255C12.7516 6.85991 12.6573 6.60799 12.4894 6.4222C12.3215 6.23642 12.0937 6.132 11.8562 6.1319C11.6186 6.13181 11.3907 6.23606 11.2227 6.42171L7.33883 10.7158C6.68151 10.6227 5.76629 10.3534 4.76151 9.98705C4.01349 9.7115 3.27233 9.4137 2.53882 9.09398L2.53793 9.09497Z" fill="white"></path>
  </symbol>
  <symbol fill="none" xmlns="http://www.w3.org/2000/svg" viewBox="0 0 22 22" id="telegram2">
    <path d="M19.8 11C19.8 13.3339 18.8729 15.5722 17.2225 17.2225C15.5722 18.8729 13.3339 19.8 11 19.8C8.66609 19.8 6.42778 18.8729 4.77746 17.2225C3.12714 15.5722 2.2 13.3339 2.2 11C2.2 8.66609 3.12714 6.42778 4.77746 4.77746C6.42778 3.12714 8.66609 2.2 11 2.2C13.3339 2.2 15.5722 3.12714 17.2225 4.77746C18.8729 6.42778 19.8 8.66609 19.8 11ZM11 22C17.0753 22 22 17.0753 22 11C22 4.9247 17.0753 0 11 0C4.9247 0 0 4.9247 0 11C0 17.0753 4.9247 22 11 22ZM11.3938 8.1202C10.3246 8.56533 8.18657 9.48677 4.9797 10.8845C4.4583 11.0913 4.1855 11.2937 4.1613 11.4917C4.1195 11.8261 4.5386 11.9581 5.1095 12.1374L5.3493 12.2144C5.9103 12.397 6.6671 12.6104 7.0598 12.6192C7.4162 12.6265 7.81367 12.4799 8.2522 12.1792C11.2486 10.1552 12.7952 9.13257 12.892 9.1113C12.9613 9.0959 13.0559 9.0761 13.1197 9.1333C13.1846 9.1905 13.178 9.2983 13.1714 9.328C13.1296 9.5051 11.484 11.0352 10.6326 11.8261C10.3803 12.0637 10.1299 12.3031 9.8813 12.5444C9.3599 13.0471 8.9683 13.4244 9.9033 14.0404C10.8504 14.6652 11.8063 15.2878 12.7303 15.9467C13.1857 16.2723 13.5949 16.5627 14.1009 16.5176C14.3946 16.4901 14.6982 16.214 14.8522 15.389C15.2174 13.442 15.9335 9.2202 16.0985 7.48C16.1081 7.33565 16.1018 7.19068 16.0798 7.0477C16.0668 6.93262 16.0111 6.82662 15.9236 6.7507C15.7916 6.6429 15.5881 6.6209 15.4979 6.622C15.0843 6.6297 14.4496 6.8497 11.3949 8.1202" fill="white"></path>
  </symbol>
  <symbol fill="none" xmlns="http://www.w3.org/2000/svg" viewBox="0 0 24 18" id="youtube">
    <path d="M1.5 14C0.833333 10.3333 0.833333 7 1.5 4C1.76667 2.53333 2.6 1.7 4 1.5C9.33333 0.833333 14.6667 0.833333 20 1.5C21.4 1.7 22.2333 2.53333 22.5 4C23.1667 7 23.1667 10.3333 22.5 14C22.2333 15.4667 21.4 16.3 20 16.5C14.6667 17.1667 9.33333 17.1667 4 16.5C2.6 16.3 1.76667 15.4667 1.5 14ZM9.5 5.5V12.5L15.5 9L9.5 5.5Z" stroke="white" stroke-width="2" stroke-linecap="round" stroke-linejoin="round"></path>
  </symbol>
  <symbol fill="none" xmlns="http://www.w3.org/2000/svg" viewBox="0 0 29 27" id="menu-burger">
    <path d="M0.625 1.78125C0.625 1.47459 0.746819 1.1805 0.963658 0.963658C1.1805 0.746819 1.47459 0.625 1.78125 0.625H27.2188C27.5254 0.625 27.8195 0.746819 28.0363 0.963658C28.2532 1.1805 28.375 1.47459 28.375 1.78125C28.375 2.08791 28.2532 2.382 28.0363 2.59884C27.8195 2.81568 27.5254 2.9375 27.2188 2.9375H1.78125C1.47459 2.9375 1.1805 2.81568 0.963658 2.59884C0.746819 2.382 0.625 2.08791 0.625 1.78125ZM0.625 13.3438C0.625 13.0371 0.746819 12.743 0.963658 12.5262C1.1805 12.3093 1.47459 12.1875 1.78125 12.1875H27.2188C27.5254 12.1875 27.8195 12.3093 28.0363 12.5262C28.2532 12.743 28.375 13.0371 28.375 13.3438C28.375 13.6504 28.2532 13.9445 28.0363 14.1613C27.8195 14.3782 27.5254 14.5 27.2188 14.5H1.78125C1.47459 14.5 1.1805 14.3782 0.963658 14.1613C0.746819 13.9445 0.625 13.6504 0.625 13.3438ZM1.78125 23.75C1.47459 23.75 1.1805 23.8718 0.963658 24.0887C0.746819 24.3055 0.625 24.5996 0.625 24.9062C0.625 25.2129 0.746819 25.507 0.963658 25.7238C1.1805 25.9407 1.47459 26.0625 1.78125 26.0625H27.2188C27.5254 26.0625 27.8195 25.9407 28.0363 25.7238C28.2532 25.507 28.375 25.2129 28.375 24.9062C28.375 24.5996 28.2532 24.3055 28.0363 24.0887C27.8195 23.8718 27.5254 23.75 27.2188 23.75H1.78125Z" fill="white"></path>
  </symbol>
</svg>